<svg viewBox="-2 -2 24.00 24.00" xmlns="http://www.w3.org/2000/svg" fill="#5D3587" stroke="#5D3587" stroke-width="0.0002"><g id="SVGRepo_bgCarrier" stroke-width="0"></g><g id="SVGRepo_tracerCarrier" stroke-linecap="round" stroke-linejoin="round"></g><g id="SVGRepo_iconCarrier"> <rect x="0" fill="none" width="20" height="20"></rect> <g> <path d="M17 5H3c-1.1 0-2 .9-2 2v6c0 1.1.9 2 2 2h14c1.1 0 2-.9 2-2V7c0-1.1-.9-2-2-2zm1 7c0 .6-.4 1-1 1H3c-.6 0-1-.4-1-1V7c0-.6.4-1 1-1h14c.6 0 1 .4 1 1v5z"></path> </g> </g></svg>
